<svg xmlns="http://www.w3.org/2000/svg" width="70" height="70" viewBox="0 0 70 70" style="width: 100%; height: 100%;"><desc>Made with illustrio</desc>
  
<g class="base"><g fill="none" fill-rule="evenodd" stroke="none" class="main-fill">
    
    
    <path fill="none" d="M10.2941176,0.149087647 C9.167774,0.149087647 8.23529412,1.08156588 8.23529412,2.20791118 L8.23529412,3.44320529 L9.88235294,3.44320529 L9.88235294,2.20791118 C9.88235294,1.96555059 10.0517562,1.79614647 10.2941176,1.79614647 L16.8823529,1.79614647 C17.1247135,1.79614647 17.2941176,1.96555059 17.2941176,2.20791118 L17.2941176,3.44320529 L18.9411765,3.44320529 L18.9411765,2.20791118 C18.9411765,1.08156588 18.0086982,0.149087647 16.8823529,0.149087647 L10.2941176,0.149087647 Z M0,5.09026412 L0,8.38439 L27.1764706,8.38439 L27.1764706,5.09026412 L0,5.09026412 Z M2.12316176,10.0314488 L4.11764706,33.9138059 C4.32924141,35.2610588 4.96058747,35.5608647 5.76470588,35.5608647 L8.23529412,35.5608647 L7.03860294,10.0314488 L2.12316176,10.0314488 Z M8.68566176,10.0314488 L9.88235294,35.5222412 C9.88265435,35.5350059 9.88265435,35.5477706 9.88235294,35.5609471 L12.7647059,35.5609471 L12.7647059,10.0315312 L8.68566176,10.0314488 Z M14.4117647,10.0314488 L14.4117647,35.5608647 L17.2941176,35.5608647 C17.2938171,35.5481 17.2938171,35.5353353 17.2941176,35.5221588 L18.4908088,10.0313665 L14.4117647,10.0314488 Z M20.1378676,10.0314488 L18.9411765,35.5608647 L21.4117647,35.5608647 C22.2158835,35.5608647 22.84723,35.2610588 23.0588235,33.9138059 L25.0533088,10.0314488 L20.1378676,10.0314488 Z" transform="translate(21.412 17.145)" stroke="none" class="main-fill"></path>
  </g></g><style>
          .main-fill {fill: #000000;}
          .main-stroke {stroke: #000000;}
          .secondary-fill {fill: #fff9f9;}
          .secondary-stroke {stroke: #fff9f9;}

          .main-fill--darken {fill: #000000;}
          .main-stroke--darken {stroke: #000000;}
          .secondary-fill--darken {fill: #ffacac;}
          .secondary-stroke--darken {stroke: #ffacac;}

          .main-fill--darkener {fill: #000000;}
          .main-stroke--darkener {stroke: #000000;}
          .secondary-fill--darkener {fill: #ff7979;}
          .secondary-stroke--darkener {stroke: #ff7979;}
        </style></svg>
