<svg xmlns="http://www.w3.org/2000/svg" width="70" height="70" viewBox="0 0 70 70" style="width: 100%; height: 100%;"><desc>Made with illustrio</desc>
  
<g class="base"><g fill="none" fill-rule="evenodd" stroke="none" class="main-fill">
    
    <path fill="none" d="M32.3635455,25.7631818 L17.0908182,0.308636364 C16.8610909,-0.0750909091 16.2291818,-0.0750909091 15.9994545,0.308636364 L0.726727273,25.7631818 C0.608363636,25.9598182 0.605818182,26.2041818 0.718454545,26.4046364 C0.831727273,26.6044545 1.04363636,26.7272727 1.27272727,26.7272727 L31.8181818,26.7272727 C32.0472727,26.7272727 32.2585455,26.6044545 32.3718182,26.4046364 C32.4850909,26.2048182 32.4819091,25.9598182 32.3635455,25.7631818 L32.3635455,25.7631818 Z M17.1818182,21 C17.1818182,21.3519091 16.8967273,21.6363636 16.5454545,21.6363636 C16.1941818,21.6363636 15.9090909,21.3519091 15.9090909,21 L15.9090909,19.7272727 C15.9090909,19.3753636 16.1941818,19.0909091 16.5454545,19.0909091 C16.8967273,19.0909091 17.1818182,19.3753636 17.1818182,19.7272727 L17.1818182,21 L17.1818182,21 Z M17.1818182,15.9090909 C17.1818182,16.261 16.8967273,16.5454545 16.5454545,16.5454545 C16.1941818,16.5454545 15.9090909,16.261 15.9090909,15.9090909 L15.9090909,9.54545455 C15.9090909,9.19418182 16.1941818,8.90909091 16.5454545,8.90909091 C16.8967273,8.90909091 17.1818182,9.19418182 17.1818182,9.54545455 L17.1818182,15.9090909 L17.1818182,15.9090909 Z" transform="translate(18.455 21.636)" stroke="none" class="main-fill"></path>
  </g></g><style>
          .main-fill {fill: #90ca00;}
          .main-stroke {stroke: #90ca00;}
          .secondary-fill {fill: #4b6300;}
          .secondary-stroke {stroke: #4b6300;}

          .main-fill--darken {fill: #597d00;}
          .main-stroke--darken {stroke: #597d00;}
          .secondary-fill--darken {fill: #111600;}
          .secondary-stroke--darken {stroke: #111600;}

          .main-fill--darkener {fill: #354a00;}
          .main-stroke--darkener {stroke: #354a00;}
          .secondary-fill--darkener {fill: #000000;}
          .secondary-stroke--darkener {stroke: #000000;}
        </style></svg>